<?xml version="1.0" standalone="no"?>
<!DOCTYPE svg PUBLIC "-//W3C//DTD SVG 20010904//EN"
 "http://www.w3.org/TR/2001/REC-SVG-20010904/DTD/svg10.dtd">
<svg version="1.0" xmlns="http://www.w3.org/2000/svg"
 width="547.000000pt" height="547.000000pt" viewBox="0 0 547.000000 547.000000"
 preserveAspectRatio="xMidYMid meet">
<metadata>
Created by potrace 1.14, written by Peter Selinger 2001-2017
</metadata>
<g transform="translate(0.000000,547.000000) scale(0.100000,-0.100000)"
fill="#000000" stroke="none">
<path d="M1040 4717 c-441 -392 -711 -886 -821 -1506 -20 -113 -39 -431 -25
-431 5 0 1006 220 1111 244 19 5 20 0 20 -137 0 -157 13 -220 62 -295 35 -53
84 -78 205 -102 184 -36 453 -34 585 5 83 25 167 134 193 252 14 61 14 180 0
232 -13 49 -61 91 -137 120 -133 51 -431 88 -614 77 l-106 -7 -96 433 c-118
529 -266 1190 -270 1201 -1 4 -49 -35 -107 -86z"/>
<path d="M4337 4767 c-11 -43 -188 -856 -266 -1220 -43 -202 -80 -369 -82
-371 -2 -2 -44 1 -94 6 -234 24 -613 -37 -736 -119 -49 -33 -61 -63 -67 -169
-8 -175 67 -333 183 -385 136 -60 570 -45 729 25 60 27 87 60 118 143 19 50
22 80 22 220 1 140 3 162 16 158 8 -2 132 -29 275 -59 143 -30 387 -82 541
-115 155 -34 287 -61 294 -61 17 0 8 250 -14 375 -107 606 -344 1063 -757
1459 -142 136 -155 145 -162 113z"/>
<path d="M2475 1939 c-33 -33 -103 -92 -156 -129 -104 -75 -206 -165 -291
-257 -168 -183 -224 -314 -249 -580 -15 -165 -6 -289 23 -320 31 -33 38 -29
38 26 0 135 50 355 109 476 73 152 155 217 302 236 132 18 261 -8 387 -78 139
-77 174 -75 385 22 210 98 282 113 366 75 56 -26 184 -151 253 -247 62 -86 67
-80 48 51 -23 159 -81 257 -213 362 -175 139 -490 308 -576 309 -44 0 -46 -1
-59 -40 -17 -53 -47 -78 -86 -71 -58 12 -83 54 -94 156 l-7 70 -50 -63 -50
-62 -3 55 c-2 30 -6 58 -10 62 -5 4 -35 -20 -67 -53z"/>
<path d="M1060 1389 c-184 -24 -403 -89 -590 -176 -79 -36 -99 -50 -95 -63 3
-9 106 -270 229 -581 l224 -564 1933 0 1933 0 218 560 c119 308 217 563 218
566 0 9 -185 95 -278 129 -173 63 -411 110 -557 110 l-70 0 -150 -391 c-168
-437 -148 -403 -300 -501 -291 -188 -645 -268 -1124 -255 -417 11 -723 98
-981 278 l-55 39 -170 430 -170 430 -75 -1 c-41 -1 -104 -5 -140 -10z"/>
</g>
</svg>
